<svg xmlns="http://www.w3.org/2000/svg" width="86.337" height="99.804" viewBox="0 0 86.337 99.804">
  <g id="Group_363" data-name="Group 363" transform="translate(-640 -297.579)">
    <path id="Path_398" data-name="Path 398" d="M235.153,106.712c-.008-.248.02-.508-.2-.7l.012-.06c-.012-.226,0-.462-.2-.629a.8.8,0,0,0-.206-.693l.016-.065c-.05-.226-.077-.454-.143-.673a42.711,42.711,0,0,0-83.019,6.976c-.03.22.137.655-.385.587v9.873c.506.1.349.536.4.837a35.919,35.919,0,0,0,4.35,12.586,2.115,2.115,0,0,0,.57,1,1.933,1.933,0,0,0,.6.984.936.936,0,0,0,.381.6.86.86,0,0,0,.393.6.93.93,0,0,0,.407.585A4.767,4.767,0,0,0,159.3,140.1v0a6.989,6.989,0,0,0,.423.657,44.5,44.5,0,0,0,33.966,16.478c0,.524.006,1.048.01,1.572q.024,6.728.048,13.453c-.03,1.054.556.323.764.214A95.668,95.668,0,0,0,216.1,157.552c7.414-6.881,13.443-14.759,17.119-24.281a41.247,41.247,0,0,0,2.707-10.56,34.671,34.671,0,0,0,.449-5.569A37.207,37.207,0,0,0,235.153,106.712Z" transform="translate(489.467 224.061)" fill="#006" stroke="#fff" stroke-width="1"/>
    <g id="Group_362" data-name="Group 362" transform="translate(653 319)">
      <path id="Path_399" data-name="Path 399" d="M216.356,112.13a11.951,11.951,0,0,1-3.82,9.191q-3.825,3.4-10.183,3.406H170.2q-6.277,0-10.134-3.285a10.942,10.942,0,0,1-3.867-8.728v-.584a10.942,10.942,0,0,1,3.867-8.719q3.858-3.328,10.134-3.328h32.154a16.648,16.648,0,0,1,7.4,1.58V97.6a6.226,6.226,0,0,0-2.117-4.573,7.3,7.3,0,0,0-5.28-2.2H160.811V84.215h41.543a13.75,13.75,0,0,1,9.849,3.99,12.519,12.519,0,0,1,4.154,9.39Zm-14,6.031q7.4,0,7.4-6.064a4.668,4.668,0,0,0-2.862-4.529,10.694,10.694,0,0,0-4.535-.872H170.2a10.517,10.517,0,0,0-4.531.872,4.691,4.691,0,0,0-2.862,4.562v.584a4.694,4.694,0,0,0,2.862,4.573,10.62,10.62,0,0,0,4.531.874Z" transform="translate(-156.198 -84.215)" fill="#fff"/>
    </g>
  </g>
</svg>
