<svg id="Component_1_1" data-name="Component 1 – 1" xmlns="http://www.w3.org/2000/svg" width="138" height="34.338" viewBox="0 0 138 34.338">
  <path id="Union_1" data-name="Union 1" d="M107.852,34.142q-.008-2.338-.016-4.677c0-.156,0-.31,0-.465H14.5a14.5,14.5,0,0,1,0-29h94a14.5,14.5,0,0,1,12.668,21.559,23.179,23.179,0,0,1-5.546,7.469,33.232,33.232,0,0,1-7.5,5.189c-.043.022-.132.121-.195.121C107.88,34.338,107.848,34.292,107.852,34.142Z" transform="translate(7)" fill="#fff"/>
  <text id="Ask_me_a_query" data-name="Ask me a query" transform="translate(0 4)" fill="#006" font-size="15" font-family="Calibri-Bold, Calibri" font-weight="700"><tspan x="-47" y="14">Ask me a query</tspan></text>
</svg>
