<svg id="Component_3_1" data-name="Component 3 – 1" xmlns="http://www.w3.org/2000/svg" width="33" height="20" viewBox="0 0 33 20">
  <rect id="Rectangle_4" data-name="Rectangle 4" width="33" height="20" rx="10" fill="#fff"/>
  <g id="Group_367" data-name="Group 367" transform="translate(6 5)">
    <path id="Path_401" data-name="Path 401" d="M68.712,190.13c.294-.35.558-.711.87-1.025a6.206,6.206,0,0,1,2.189-1.379,9.038,9.038,0,0,1,2.8-.6c.863-.048,1.728-.063,2.592-.1.184-.008.235.056.233.234-.007.93,0,1.861,0,2.791v.189l.052.045,7.488-5.04-7.487-5.04-.059.033q0,.4,0,.79c0,.657,0,1.314.007,1.971,0,.187-.066.226-.242.256-.715.124-1.433.248-2.137.421a11.208,11.208,0,0,0-3.035,1.229,6.5,6.5,0,0,0-2.814,3,5.909,5.909,0,0,0-.474,1.976A1.733,1.733,0,0,0,68.712,190.13Z" transform="translate(-68.695 -180.191)" fill="#006" fill-rule="evenodd"/>
    <path id="Path_402" data-name="Path 402" d="M-62.947,189.894l7.495-5.045-7.511-5.057a2.071,2.071,0,0,0-.025.213c0,.6,0,1.2,0,1.8a.3.3,0,0,0,.152.288q1.94,1.3,3.872,2.611c.058.039.112.084.2.15-.128.093-.232.174-.342.247q-1.873,1.26-3.745,2.521a.3.3,0,0,0-.127.2c-.009.657-.005,1.314,0,1.971A.459.459,0,0,0-62.947,189.894Z" transform="translate(76.837 -179.792)" fill="#8c8ca8" fill-rule="evenodd"/>
  </g>
</svg>
